<svg height="512" viewBox="0 0 128 128" width="512" xmlns="http://www.w3.org/2000/svg"><g id="number"><text fill="#24253a" font-family="MyriadPro-Regular, Myriad Pro" font-size="40" letter-spacing=".002em" transform="translate(54.366 -1194.265)">4<tspan x="-10.3" y="228">14</tspan><tspan x="-10.3" y="456">24</tspan><tspan x="-10.3" y="684">34</tspan><tspan x="-10.3" y="912">44</tspan><tspan x="-10.3" y="1140">54</tspan><tspan x="-10.3" y="1368">64</tspan><tspan x="-10.3" y="1596">74</tspan><tspan x="-10.3" y="1824">84</tspan><tspan x="-10.3" y="2052">94</tspan><tspan x="-20.599" y="2280">104</tspan><tspan x="-20.599" y="2508">114</tspan><tspan x="-20.599" y="2736">124</tspan><tspan x="-20.599" y="2964">134</tspan><tspan x="-20.599" y="3192">144</tspan><tspan x="-20.599" y="3420">154</tspan><tspan x="-20.599" y="3648">164</tspan><tspan x="-20.599" y="3876">174</tspan><tspan x="-20.599" y="4104">184</tspan><tspan x="-20.599" y="4332">194</tspan><tspan x="-20.599" y="4560">204</tspan><tspan x="-20.599" y="4788">214</tspan><tspan x="-20.599" y="5016">224</tspan><tspan x="-20.599" y="5244">234</tspan><tspan x="-20.599" y="5472">244</tspan></text></g><g id="Circle_Grid" data-name="Circle Grid"><circle cx="64" cy="64" fill="#2cbfae" r="64"/></g><g id="icon"><path d="m103.662 53.771v44.895a3.9 3.9 0 0 1 -1.3 2.936l-.118.118a3.959 3.959 0 0 1 -2.582.946h-71.323a3.945 3.945 0 0 1 -2.562-.946.334.334 0 0 1 -.118-.118 3.916 3.916 0 0 1 -1.321-2.936v-44.895a3.817 3.817 0 0 1 1.064-2.68 3.7 3.7 0 0 1 1-.828 4.019 4.019 0 0 1 1.931-.493h71.328a4.183 4.183 0 0 1 2.956 1.3 4.032 4.032 0 0 1 1.045 2.701z" fill="#f6b863"/><path d="m102.621 51.066c-.281.347-38.6 30.821-38.6 30.821l-38.621-30.787.017-.016v-.017l36.417-29.625a3.458 3.458 0 0 1 4.364 0z" fill="#eaa14e"/><path d="m94.474 30.409v27.218l-30.457 24.26-30.474-24.293v-27.185z" fill="#eeefee"/><path d="m102.357 101.6a.758.758 0 0 1 -.116.116l-34.308-22.886 3.14-2.529z" fill="#eaa14e"/><path d="m60.083 78.813-34.308 22.9a.253.253 0 0 1 -.116-.116l31.268-25.329z" fill="#eaa14e"/><g fill="#dbd8dd"><path d="m40.293 37.553h47.413v2.057h-47.413z"/><path d="m40.293 45.487h47.413v2.057h-47.413z"/><path d="m40.293 53.422h47.413v2.057h-47.413z"/><path d="m48.256 61.356h31.488v2.057h-31.488z"/></g></g></svg>