<svg id="Layer_1" data-name="Layer 1" xmlns="http://www.w3.org/2000/svg" viewBox="0 0 420 420"><defs><style>.cls-1{fill:#0070ad;}.cls-2{fill:#0cbefb;}.cls-3{fill:#99d3ff;}</style></defs><path class="cls-1" d="M251,40C135.02,40,41,134.02,41,250c0,115.98,94.02,210,210,210s210-94.02,210-210C461,134.02,366.98,40,251,40Zm-1.5,396C146.5,436,63,352.5,63,249.5A186.58014,186.58014,0,0,1,206,68.1L229,99,217.96,214.41l59.48-36.2L270,101l26.53-32.02A186.58418,186.58418,0,0,1,436,249.5C436,352.5,352.5,436,249.5,436Z" transform="translate(-41 -40)"/><polygon class="cls-2" points="240.32 157.68 176.75 197.53 171.88 248.47 244.85 204.69 240.32 157.68"/><polygon class="cls-3" points="244.79 225.8 167.63 273 164 311 209 355.02 253 311 244.79 225.8"/></svg>